<svg class="size-6 text-site-100" xmlns="http://www.w3.org/2000/svg" version="1.0" viewBox="0 0 1092 1080">
    <path fill="currentColor" d="M517 21a660 660 0 0 0-62 8 542 542 0 0 0-225 101A579 579 0 0 0 97 287l-24 48c-16 39-26 72-31 103l-3 13a520 520 0 0 0 645 588l12-3a547 547 0 0 0 144-68 503 503 0 0 0 214-306l3-13 4-18a562 562 0 0 0-4-204 553 553 0 0 0-93-201A546 546 0 0 0 778 72l-16-7c-30-14-72-28-107-34l-22-5-11-2-11-1a662 662 0 0 0-94-2zm72 70a184 184 0 0 1 29 4 554 554 0 0 1 32 5 473 473 0 0 1 187 93 446 446 0 0 1 46 647 469 469 0 0 1-216 132l-8 2-7 2a227 227 0 0 1-41 7 525 525 0 0 1-153-5 493 493 0 0 1-187-88l-8-7a412 412 0 0 1-69-71l-5-7a449 449 0 0 1-76-165l-2-12c-6-26-8-46-9-82A451 451 0 0 1 589 91z"/>
    <path fill="currentColor" d="M524 134c-14 1-36 3-43 5l-10 2a417 417 0 0 0-144 59c-27 18-40 29-65 54-23 23-37 40-51 61l-10 16a461 461 0 0 0-38 85l-4 12a403 403 0 0 0 54 341l8 11a410 410 0 0 0 241 158l15 4 37 5c28 2 83 0 105-4l15-3a248 248 0 0 1 21-5l13-4a485 485 0 0 0 85-37 422 422 0 0 0 174-198 427 427 0 0 0 30-136v-9l-24-1-117-1h-92l-1-141V265c1-2 24 15 40 28a525 525 0 0 1 40 39l7-5a611 611 0 0 1 18-14l21-17 15-14-9-12-12-12a493 493 0 0 0-91-72 476 476 0 0 0-132-47c-23-4-69-7-96-5zm61 82c15 2 41 6 42 8a892 892 0 0 0-34 62l-36 62-4 6a565 565 0 0 0-27 48l-5 6a593 593 0 0 1-38-65l-7-12a370 370 0 0 0-20-34l-31-57a263 263 0 0 1 91-24h69zM319 540l-1 228a124 124 0 0 1-25-26 330 330 0 0 1-65-255 314 314 0 0 1 89-174c2 0 2 3 2 227zm89-183a1055 1055 0 0 1 43 75 1760 1760 0 0 0 38 66l16 24 11 17 4 7c0 2 2 1 4-1l3-4a200 200 0 0 1 13-23l6-10 7-11 9-15a1513 1513 0 0 0 40-68l11-19 5-9 3-6a1288 1288 0 0 0 30-48l1 194v192h70l1-50v-49l71-1 72 1a334 334 0 0 1-109 175 336 336 0 0 1-181 72c-28 2-68 0-92-5l-11-3a205 205 0 0 1-39-12l-6-2-21-10-17-8V325l3 6 15 26z"/>
    <style>
        path { fill: #000; }
        @media (prefers-color-scheme: dark) {
            path { fill: #FFF; }
        }
    </style>
  </svg>